<svg xmlns="http://www.w3.org/2000/svg" viewBox="0 0 520 720"><defs><linearGradient id="k" x1="0" x2="1" y1="0" y2="1"><stop stop-color="#1d8fff"/><stop offset=".55" stop-color="#034694"/><stop offset="1" stop-color="#062d83"/></linearGradient><linearGradient id="s" x1="0" x2="1" y1="0" y2="1"><stop stop-color="#f2c7a7"/><stop offset="1" stop-color="#c98258"/></linearGradient></defs><rect width="520" height="720" fill="none"/><circle cx="270" cy="360" r="230" fill="#87cfff" opacity=".24"/><ellipse cx="271" cy="651" rx="160" ry="28" fill="#034694" opacity=".16"/><path d="M225 244c-35 14-62 36-84 70l36 32c21-24 43-40 70-49zM329 244c34 16 61 39 82 71l-38 31c-20-23-42-39-69-49zM220 235h115c43 58 52 139 39 242H177c-10-104 1-183 43-242z" fill="url(#k)"/><path d="M246 196c2 27 13 45 33 45 22 0 34-18 36-45z" fill="url(#s)"/><circle cx="280" cy="158" r="55" fill="url(#s)"/><path d="M229 145c10-49 51-71 96-46 20 11 29 27 31 53-42-18-83-19-127-7z" fill="#10204f"/><path d="M185 477h84l-16 142h-67zM284 477h84l40 142h-68z" fill="#10204f"/><path d="M178 620h92v30h-112c-5-14 3-25 20-30zM332 620h98v30H323c-7-12-4-23 9-30z" fill="#fff"/><path d="M175 349l-51 82-45-20 62-97zM374 348l55 80 43-23-61-91z" fill="url(#s)"/><circle cx="424" cy="432" r="40" fill="#fff" stroke="#10204f" stroke-width="10"/><path d="M203 294h153v26H203z" fill="#fff" opacity=".18"/><text x="242" y="360" fill="#fff" font-family="Arial Black,Arial,sans-serif" font-size="32" font-weight="900">CFC</text></svg>